# xmcd
#
# Track frame offsets: 
#        150
#        16680
#        37830
#        53100
#        69395
#        85305
#        96530
#        114875
#        128787
#        148687
#        161775
#
# Disc length: 2340 seconds
#
# Revision: 1
# Processed by: cddbd v1.5.2PL0 Copyright (c) Steve Scherf et al.
# Submitted via: ExactAudioCopy v0.99pb4
#
DISCID=8b09220b
DTITLE=Big Jim's Back - Big Jim Sullivan
DYEAR=1992
DGENRE=country
TTITLE0=Ribber hip gnome
TTITLE1=Home
TTITLE2=Arabella Swampchild
TTITLE3=Laid Back Rock an Roll Song
TTITLE4=Cascade
TTITLE5=One Fing´n´nuvver
TTITLE6=Takin it easy
TTITLE7=Louisiana Lovers
TTITLE8=Ballade of Billy Tyler
TTITLE9=Country Boy Picker
TTITLE10=If I could only play like that
EXTD=
EXTT0=
EXTT1=
EXTT2=
EXTT3=
EXTT4=
EXTT5=
EXTT6=
EXTT7=
EXTT8=
EXTT9=
EXTT10=
PLAYORDER=
